<?xml version="1.0" encoding="utf-8"?>
<svg width="138.82px" height="149.445px" viewBox="0 0 138.82 149.445" version="1.1" xmlns:xlink="http://www.w3.org/1999/xlink" xmlns="http://www.w3.org/2000/svg">
  <g id="ico">
    <g id="vitus_marca_ass_horizontal_pantone">
      <g id="vitus_marca_ass_horizontal_pantone#1">
        <g id="g8">
          <g id="g10">
            <g id="Grupo-de-Máscaras">
              <g id="g12">
                <path d="M72.1494 52.5587L72.1494 29.148C52.66 13.4933 28.7987 3.06131 2.67603 0C0.944031 7.44 0 15.1813 0 23.148C0 59.5427 19.112 91.452 47.8347 109.447L47.8347 70.9253C55.38 64.1333 63.5187 57.9893 72.1494 52.5587" id="g22" fill="#FDA19A" stroke="none" />
                <path d="M138.289 27.5981C114.281 31.4181 91.8974 40.0754 72.1294 52.5141L72.1294 120.503C63.476 117.873 55.3213 114.106 47.8147 109.402L47.8147 149.445C99.993 142.338 138.82 93.3714 138.82 38.4554C138.82 34.7914 138.629 31.1727 138.289 27.5981" id="g26" fill="#1819DD" stroke="none" />
              </g>
            </g>
          </g>
        </g>
      </g>
    </g>
  </g>
</svg>